<svg width="200" height="200" viewBox="0 0 200 200" fill="none" xmlns="http://www.w3.org/2000/svg">
<g id="Party popper">
<g id="Union">
<path d="M116.791 155.347C119.536 154.15 120.678 152.398 121.503 151.367C128.912 142.114 113.105 114.648 90.538 98.7557C66.6205 77.9297 40.2859 70.833 32.8777 80.0864C31.6061 81.6745 30.6097 83.8379 30.1946 86.2793L16.1321 167.187C15.6438 177.051 19.4136 180.799 21.3001 182.63C24.7187 185.948 31.3665 188.77 38.3001 186.328C65.0579 176.025 90.1252 166.972 116.791 155.347Z" fill="url(#paint0_linear_76_838)"/>
<path d="M116.791 155.347C119.536 154.15 120.678 152.398 121.503 151.367C128.912 142.114 113.105 114.648 90.538 98.7557C66.6205 77.9297 40.2859 70.833 32.8777 80.0864C31.6061 81.6745 30.6097 83.8379 30.1946 86.2793L16.1321 167.187C15.6438 177.051 19.4136 180.799 21.3001 182.63C24.7187 185.948 31.3665 188.77 38.3001 186.328C65.0579 176.025 90.1252 166.972 116.791 155.347Z" fill="url(#paint1_linear_76_838)"/>
<path d="M116.791 155.347C119.536 154.15 120.678 152.398 121.503 151.367C128.912 142.114 113.105 114.648 90.538 98.7557C66.6205 77.9297 40.2859 70.833 32.8777 80.0864C31.6061 81.6745 30.6097 83.8379 30.1946 86.2793L16.1321 167.187C15.6438 177.051 19.4136 180.799 21.3001 182.63C24.7187 185.948 31.3665 188.77 38.3001 186.328C65.0579 176.025 90.1252 166.972 116.791 155.347Z" fill="url(#paint2_linear_76_838)"/>
<path d="M116.791 155.347C119.536 154.15 120.678 152.398 121.503 151.367C128.912 142.114 113.105 114.648 90.538 98.7557C66.6205 77.9297 40.2859 70.833 32.8777 80.0864C31.6061 81.6745 30.6097 83.8379 30.1946 86.2793L16.1321 167.187C15.6438 177.051 19.4136 180.799 21.3001 182.63C24.7187 185.948 31.3665 188.77 38.3001 186.328C65.0579 176.025 90.1252 166.972 116.791 155.347Z" fill="url(#paint3_linear_76_838)"/>
<path d="M116.791 155.347C119.536 154.15 120.678 152.398 121.503 151.367C128.912 142.114 113.105 114.648 90.538 98.7557C66.6205 77.9297 40.2859 70.833 32.8777 80.0864C31.6061 81.6745 30.6097 83.8379 30.1946 86.2793L16.1321 167.187C15.6438 177.051 19.4136 180.799 21.3001 182.63C24.7187 185.948 31.3665 188.77 38.3001 186.328C65.0579 176.025 90.1252 166.972 116.791 155.347Z" fill="url(#paint4_radial_76_838)"/>
</g>
<g id="Ellipse 144">
<ellipse cx="78.4671" cy="113.668" rx="50.8139" ry="18.221" transform="rotate(39.7456 78.4671 113.668)" fill="url(#paint5_linear_76_838)"/>
<ellipse cx="78.4671" cy="113.668" rx="50.8139" ry="18.221" transform="rotate(39.7456 78.4671 113.668)" fill="url(#paint6_radial_76_838)"/>
<ellipse cx="78.4671" cy="113.668" rx="50.8139" ry="18.221" transform="rotate(39.7456 78.4671 113.668)" fill="url(#paint7_radial_76_838)"/>
</g>
<g id="Ellipse 145">
<circle cx="93.4756" cy="100" r="7.51953" fill="url(#paint8_radial_76_838)"/>
<circle cx="93.4756" cy="100" r="7.51953" fill="url(#paint9_radial_76_838)"/>
</g>
<g id="Ellipse 146">
<circle cx="155.194" cy="143.164" r="7.51953" fill="url(#paint10_radial_76_838)"/>
<circle cx="155.194" cy="143.164" r="7.51953" fill="url(#paint11_radial_76_838)"/>
<circle cx="155.194" cy="143.164" r="7.51953" fill="url(#paint12_radial_76_838)"/>
</g>
<g id="Ellipse 147">
<circle cx="148.896" cy="43.8477" r="7.51953" fill="url(#paint13_radial_76_838)"/>
<circle cx="148.896" cy="43.8477" r="7.51953" fill="url(#paint14_radial_76_838)"/>
</g>
<g id="Ellipse 148">
<circle cx="62.4419" cy="21.0449" r="7.51953" fill="url(#paint15_radial_76_838)"/>
<circle cx="62.4419" cy="21.0449" r="7.51953" fill="url(#paint16_radial_76_838)"/>
<circle cx="62.4419" cy="21.0449" r="7.51953" fill="url(#paint17_radial_76_838)"/>
</g>
<g id="Ellipse 149">
<circle cx="30.8013" cy="50.6836" r="7.51953" fill="url(#paint18_radial_76_838)"/>
<circle cx="30.8013" cy="50.6836" r="7.51953" fill="url(#paint19_radial_76_838)"/>
</g>
<g id="Vector 729 (Stroke)">
<path fill-rule="evenodd" clip-rule="evenodd" d="M119.4 13.0149C122.676 13.1681 125.207 15.9476 125.054 19.2232C124.843 23.7331 124.022 31.2461 122.063 39.2711C120.425 45.9789 117.904 53.4189 114.022 59.7975C114.961 64.7737 114.986 70.6455 113.956 77.3223C113.456 80.5631 110.423 82.7848 107.182 82.2846C103.941 81.7844 101.719 78.7518 102.22 75.5109C102.45 74.017 102.614 72.6181 102.719 71.3088C101.566 71.9097 100.386 72.3809 99.1811 72.7175C94.4741 74.0327 89.9597 73.1212 86.4285 70.7688C79.7197 66.2997 76.6262 56.5198 81.8192 48.5244C86.7592 40.9183 97.0551 38.8503 104.884 44.2618C105.787 44.8858 106.635 45.5888 107.425 46.369C108.674 43.2101 109.701 39.8394 110.527 36.4548C112.284 29.2562 113.012 22.5083 113.192 18.6686C113.345 15.393 116.125 12.8617 119.4 13.0149ZM100.981 57.6429C100.079 55.766 99.0086 54.6363 98.132 54.0304C95.6827 52.3374 92.9903 53.1259 91.778 54.9925C90.478 56.994 91.1656 59.6559 93.0121 60.8859C93.7585 61.3831 94.7153 61.6355 95.9855 61.2806C97.1349 60.9594 98.894 60.0268 100.981 57.6429Z" fill="url(#paint20_linear_76_838)"/>
<path fill-rule="evenodd" clip-rule="evenodd" d="M119.4 13.0149C122.676 13.1681 125.207 15.9476 125.054 19.2232C124.843 23.7331 124.022 31.2461 122.063 39.2711C120.425 45.9789 117.904 53.4189 114.022 59.7975C114.961 64.7737 114.986 70.6455 113.956 77.3223C113.456 80.5631 110.423 82.7848 107.182 82.2846C103.941 81.7844 101.719 78.7518 102.22 75.5109C102.45 74.017 102.614 72.6181 102.719 71.3088C101.566 71.9097 100.386 72.3809 99.1811 72.7175C94.4741 74.0327 89.9597 73.1212 86.4285 70.7688C79.7197 66.2997 76.6262 56.5198 81.8192 48.5244C86.7592 40.9183 97.0551 38.8503 104.884 44.2618C105.787 44.8858 106.635 45.5888 107.425 46.369C108.674 43.2101 109.701 39.8394 110.527 36.4548C112.284 29.2562 113.012 22.5083 113.192 18.6686C113.345 15.393 116.125 12.8617 119.4 13.0149ZM100.981 57.6429C100.079 55.766 99.0086 54.6363 98.132 54.0304C95.6827 52.3374 92.9903 53.1259 91.778 54.9925C90.478 56.994 91.1656 59.6559 93.0121 60.8859C93.7585 61.3831 94.7153 61.6355 95.9855 61.2806C97.1349 60.9594 98.894 60.0268 100.981 57.6429Z" fill="url(#paint21_radial_76_838)"/>
<path fill-rule="evenodd" clip-rule="evenodd" d="M119.4 13.0149C122.676 13.1681 125.207 15.9476 125.054 19.2232C124.843 23.7331 124.022 31.2461 122.063 39.2711C120.425 45.9789 117.904 53.4189 114.022 59.7975C114.961 64.7737 114.986 70.6455 113.956 77.3223C113.456 80.5631 110.423 82.7848 107.182 82.2846C103.941 81.7844 101.719 78.7518 102.22 75.5109C102.45 74.017 102.614 72.6181 102.719 71.3088C101.566 71.9097 100.386 72.3809 99.1811 72.7175C94.4741 74.0327 89.9597 73.1212 86.4285 70.7688C79.7197 66.2997 76.6262 56.5198 81.8192 48.5244C86.7592 40.9183 97.0551 38.8503 104.884 44.2618C105.787 44.8858 106.635 45.5888 107.425 46.369C108.674 43.2101 109.701 39.8394 110.527 36.4548C112.284 29.2562 113.012 22.5083 113.192 18.6686C113.345 15.393 116.125 12.8617 119.4 13.0149ZM100.981 57.6429C100.079 55.766 99.0086 54.6363 98.132 54.0304C95.6827 52.3374 92.9903 53.1259 91.778 54.9925C90.478 56.994 91.1656 59.6559 93.0121 60.8859C93.7585 61.3831 94.7153 61.6355 95.9855 61.2806C97.1349 60.9594 98.894 60.0268 100.981 57.6429Z" fill="url(#paint22_radial_76_838)"/>
<path fill-rule="evenodd" clip-rule="evenodd" d="M119.4 13.0149C122.676 13.1681 125.207 15.9476 125.054 19.2232C124.843 23.7331 124.022 31.2461 122.063 39.2711C120.425 45.9789 117.904 53.4189 114.022 59.7975C114.961 64.7737 114.986 70.6455 113.956 77.3223C113.456 80.5631 110.423 82.7848 107.182 82.2846C103.941 81.7844 101.719 78.7518 102.22 75.5109C102.45 74.017 102.614 72.6181 102.719 71.3088C101.566 71.9097 100.386 72.3809 99.1811 72.7175C94.4741 74.0327 89.9597 73.1212 86.4285 70.7688C79.7197 66.2997 76.6262 56.5198 81.8192 48.5244C86.7592 40.9183 97.0551 38.8503 104.884 44.2618C105.787 44.8858 106.635 45.5888 107.425 46.369C108.674 43.2101 109.701 39.8394 110.527 36.4548C112.284 29.2562 113.012 22.5083 113.192 18.6686C113.345 15.393 116.125 12.8617 119.4 13.0149ZM100.981 57.6429C100.079 55.766 99.0086 54.6363 98.132 54.0304C95.6827 52.3374 92.9903 53.1259 91.778 54.9925C90.478 56.994 91.1656 59.6559 93.0121 60.8859C93.7585 61.3831 94.7153 61.6355 95.9855 61.2806C97.1349 60.9594 98.894 60.0268 100.981 57.6429Z" fill="url(#paint23_radial_76_838)"/>
</g>
<path id="Intersect" d="M99.7019 162.557C83.4147 161.425 71.991 156.55 53.4831 141.259C37.5617 128.105 29.6572 116.435 27.0189 104.535L23.9624 122.121C25.2116 129.003 30.5827 138.622 41.2272 148.242C55.1491 160.822 69.0104 169.726 82.7183 169.336C88.36 167.133 94.0099 164.886 99.7019 162.557Z" fill="url(#paint24_radial_76_838)"/>
<path id="Intersect_2" d="M65.3541 176.018C57.5261 176.455 46.9398 170.069 35.9535 160.938C26.5785 152.832 21.9541 144.026 20.9809 139.274L17.877 157.133C18.6447 160.152 20.9829 164.255 27.7504 171.192C35.3178 178.948 42.9278 181.967 47.4471 182.825C50.6537 181.603 53.8411 180.393 57.0149 179.188C59.8038 178.129 62.5821 177.074 65.3541 176.018Z" fill="url(#paint25_radial_76_838)"/>
<g id="Vector 728 (Stroke)">
<path fill-rule="evenodd" clip-rule="evenodd" d="M174.396 81.9297C151.909 77.5369 138.622 87.8386 134.41 92.4588C131.969 95.1373 127.818 95.3292 125.14 92.8875C122.461 90.4458 122.269 86.2951 124.711 83.6166C131.241 76.453 148.911 63.578 176.913 69.0482C180.47 69.7431 182.79 73.1901 182.095 76.7472C181.4 80.3043 177.953 82.6246 174.396 81.9297Z" fill="url(#paint26_radial_76_838)"/>
<path fill-rule="evenodd" clip-rule="evenodd" d="M174.396 81.9297C151.909 77.5369 138.622 87.8386 134.41 92.4588C131.969 95.1373 127.818 95.3292 125.14 92.8875C122.461 90.4458 122.269 86.2951 124.711 83.6166C131.241 76.453 148.911 63.578 176.913 69.0482C180.47 69.7431 182.79 73.1901 182.095 76.7472C181.4 80.3043 177.953 82.6246 174.396 81.9297Z" fill="url(#paint27_radial_76_838)"/>
</g>
<g id="Intersect_3">
<path d="M80.3438 51.3221C80.7276 50.3733 81.2125 49.4371 81.8054 48.5241C86.7454 40.9181 97.0414 38.8501 104.87 44.2616C105.773 44.8856 106.621 45.5886 107.411 46.3688C107.666 45.7233 107.912 45.069 108.149 44.4076C108.161 44.4476 108.172 44.4874 108.183 44.527C106.575 49.5929 102.966 55.0159 100.962 57.6322C100.061 55.7615 98.9932 54.6349 98.1183 54.0302C95.669 52.3372 92.9766 53.1257 91.7643 54.9923C91.7171 55.0649 91.6725 55.1384 91.6306 55.2127L80.3438 51.3221Z" fill="url(#paint28_radial_76_838)"/>
<path d="M80.3438 51.3221C80.7276 50.3733 81.2125 49.4371 81.8054 48.5241C86.7454 40.9181 97.0414 38.8501 104.87 44.2616C105.773 44.8856 106.621 45.5886 107.411 46.3688C107.666 45.7233 107.912 45.069 108.149 44.4076C108.161 44.4476 108.172 44.4874 108.183 44.527C106.575 49.5929 102.966 55.0159 100.962 57.6322C100.061 55.7615 98.9932 54.6349 98.1183 54.0302C95.669 52.3372 92.9766 53.1257 91.7643 54.9923C91.7171 55.0649 91.6725 55.1384 91.6306 55.2127L80.3438 51.3221Z" fill="url(#paint29_radial_76_838)"/>
</g>
<g id="Subtract">
<path fill-rule="evenodd" clip-rule="evenodd" d="M86.5089 141.287C82.2325 138.923 77.775 136.059 73.2915 132.753C80.0812 124.337 92.2099 113.299 108.024 105.328C134.008 92.23 162.657 99.3389 174.331 103.967C178.342 105.557 180.305 110.098 178.715 114.109C177.125 118.12 172.584 120.082 168.573 118.492C158.568 114.526 135.17 109.142 115.057 119.28C101.791 125.967 91.9277 134.957 86.5089 141.287Z" fill="url(#paint30_linear_76_838)"/>
<path fill-rule="evenodd" clip-rule="evenodd" d="M86.5089 141.287C82.2325 138.923 77.775 136.059 73.2915 132.753C80.0812 124.337 92.2099 113.299 108.024 105.328C134.008 92.23 162.657 99.3389 174.331 103.967C178.342 105.557 180.305 110.098 178.715 114.109C177.125 118.12 172.584 120.082 168.573 118.492C158.568 114.526 135.17 109.142 115.057 119.28C101.791 125.967 91.9277 134.957 86.5089 141.287Z" fill="url(#paint31_radial_76_838)"/>
<path fill-rule="evenodd" clip-rule="evenodd" d="M86.5089 141.287C82.2325 138.923 77.775 136.059 73.2915 132.753C80.0812 124.337 92.2099 113.299 108.024 105.328C134.008 92.23 162.657 99.3389 174.331 103.967C178.342 105.557 180.305 110.098 178.715 114.109C177.125 118.12 172.584 120.082 168.573 118.492C158.568 114.526 135.17 109.142 115.057 119.28C101.791 125.967 91.9277 134.957 86.5089 141.287Z" fill="url(#paint32_radial_76_838)"/>
<path fill-rule="evenodd" clip-rule="evenodd" d="M86.5089 141.287C82.2325 138.923 77.775 136.059 73.2915 132.753C80.0812 124.337 92.2099 113.299 108.024 105.328C134.008 92.23 162.657 99.3389 174.331 103.967C178.342 105.557 180.305 110.098 178.715 114.109C177.125 118.12 172.584 120.082 168.573 118.492C158.568 114.526 135.17 109.142 115.057 119.28C101.791 125.967 91.9277 134.957 86.5089 141.287Z" fill="url(#paint33_radial_76_838)"/>
</g>
<g id="Subtract_2">
<path fill-rule="evenodd" clip-rule="evenodd" d="M63.6998 41.584C61.6018 37.8137 56.8446 36.458 53.0743 38.556C49.304 40.654 47.9483 45.4112 50.0463 49.1815C53.2144 54.875 57.1153 62.9124 57.6146 73.2617C58.0497 82.2809 55.9258 93.72 47.291 107.442C50.2787 111.396 53.8866 115.493 58.0135 119.563C70.1879 101.854 73.8719 85.9922 73.2214 72.5088C72.5488 58.566 67.27 47.9999 63.6998 41.584Z" fill="url(#paint34_radial_76_838)"/>
<path fill-rule="evenodd" clip-rule="evenodd" d="M63.6998 41.584C61.6018 37.8137 56.8446 36.458 53.0743 38.556C49.304 40.654 47.9483 45.4112 50.0463 49.1815C53.2144 54.875 57.1153 62.9124 57.6146 73.2617C58.0497 82.2809 55.9258 93.72 47.291 107.442C50.2787 111.396 53.8866 115.493 58.0135 119.563C70.1879 101.854 73.8719 85.9922 73.2214 72.5088C72.5488 58.566 67.27 47.9999 63.6998 41.584Z" fill="url(#paint35_radial_76_838)"/>
</g>
<path id="Intersect_4" d="M114.01 59.8022C114.948 64.7773 114.973 70.6473 113.943 77.3217C113.442 80.5625 110.41 82.7842 107.169 82.284C103.928 81.7838 101.706 78.7512 102.207 75.5103C102.437 74.0192 102.6 72.6227 102.705 71.3155C108.842 67.4623 112.894 62.3353 114.01 59.8022Z" fill="url(#paint36_radial_76_838)"/>
</g>
<defs>
<linearGradient id="paint0_linear_76_838" x1="26.386" y1="124.902" x2="76.7766" y2="168.652" gradientUnits="userSpaceOnUse">
<stop stop-color="#B3843C"/>
<stop offset="1" stop-color="#F17A61"/>
</linearGradient>
<linearGradient id="paint1_linear_76_838" x1="20.8178" y1="131.673" x2="35.5657" y2="134.668" gradientUnits="userSpaceOnUse">
<stop stop-color="#B1853B"/>
<stop offset="1" stop-color="#B1853B" stop-opacity="0"/>
</linearGradient>
<linearGradient id="paint2_linear_76_838" x1="123.35" y1="148.926" x2="98.4563" y2="153.027" gradientUnits="userSpaceOnUse">
<stop stop-color="#F9C26C"/>
<stop offset="1" stop-color="#F9C26C" stop-opacity="0"/>
</linearGradient>
<linearGradient id="paint3_linear_76_838" x1="69.7192" y1="77.4414" x2="53.7298" y2="104.59" gradientUnits="userSpaceOnUse">
<stop stop-color="#E6BF69"/>
<stop offset="1" stop-color="#E6BF69" stop-opacity="0"/>
</linearGradient>
<radialGradient id="paint4_radial_76_838" cx="0" cy="0" r="1" gradientUnits="userSpaceOnUse" gradientTransform="translate(78.7701 111.913) rotate(-49.3383) scale(27.2083 63.7626)">
<stop stop-color="#F5BD55" stop-opacity="0"/>
<stop offset="0.836376" stop-color="#FCCB57"/>
<stop offset="1" stop-color="#FCCB57" stop-opacity="0"/>
</radialGradient>
<linearGradient id="paint5_linear_76_838" x1="32.1727" y1="111.654" x2="135.172" y2="116.689" gradientUnits="userSpaceOnUse">
<stop stop-color="#F3AB2C"/>
<stop offset="1" stop-color="#B57F1E"/>
</linearGradient>
<radialGradient id="paint6_radial_76_838" cx="0" cy="0" r="1" gradientUnits="userSpaceOnUse" gradientTransform="translate(52.8363 128.256) rotate(-109.125) scale(40.4844 11.3392)">
<stop offset="0.423414" stop-color="#CA851E"/>
<stop offset="1" stop-color="#CA851E" stop-opacity="0"/>
</radialGradient>
<radialGradient id="paint7_radial_76_838" cx="0" cy="0" r="1" gradientUnits="userSpaceOnUse" gradientTransform="translate(95.2229 128.825) rotate(-73.0972) scale(40.6846 23.8253)">
<stop stop-color="#BC7F28"/>
<stop offset="1" stop-color="#BC7F28" stop-opacity="0"/>
</radialGradient>
<radialGradient id="paint8_radial_76_838" cx="0" cy="0" r="1" gradientUnits="userSpaceOnUse" gradientTransform="translate(96.7959 97.9492) rotate(138.668) scale(10.7944)">
<stop stop-color="#5AC0FF"/>
<stop offset="1" stop-color="#3279B6"/>
</radialGradient>
<radialGradient id="paint9_radial_76_838" cx="0" cy="0" r="1" gradientUnits="userSpaceOnUse" gradientTransform="translate(94.9549 98.964) rotate(160.051) scale(10.8399 11.8819)">
<stop offset="0.534713" stop-color="#3A619E" stop-opacity="0"/>
<stop offset="1" stop-color="#3A619E"/>
</radialGradient>
<radialGradient id="paint10_radial_76_838" cx="0" cy="0" r="1" gradientUnits="userSpaceOnUse" gradientTransform="translate(159.551 139.986) rotate(134.569) scale(12.3596)">
<stop stop-color="#FDD46C"/>
<stop offset="1" stop-color="#F09C53"/>
</radialGradient>
<radialGradient id="paint11_radial_76_838" cx="0" cy="0" r="1" gradientUnits="userSpaceOnUse" gradientTransform="translate(156.595 139.329) rotate(100.827) scale(12.2427)">
<stop offset="0.792052" stop-color="#E76260" stop-opacity="0"/>
<stop offset="0.964251" stop-color="#E76260"/>
</radialGradient>
<radialGradient id="paint12_radial_76_838" cx="0" cy="0" r="1" gradientUnits="userSpaceOnUse" gradientTransform="translate(158.782 144.405) rotate(-147.558) scale(12.3982 14.6006)">
<stop offset="0.482355" stop-color="#AA885A" stop-opacity="0"/>
<stop offset="0.90682" stop-color="#AA885A"/>
</radialGradient>
<radialGradient id="paint13_radial_76_838" cx="0" cy="0" r="1" gradientUnits="userSpaceOnUse" gradientTransform="translate(154.28 40.9216) rotate(132.387) scale(12.8757)">
<stop stop-color="#FF46AA"/>
<stop offset="1" stop-color="#E3189D"/>
</radialGradient>
<radialGradient id="paint14_radial_76_838" cx="0" cy="0" r="1" gradientUnits="userSpaceOnUse" gradientTransform="translate(152.069 45.2148) rotate(-173.29) scale(11.7012 15.6599)">
<stop offset="0.522105" stop-color="#B63173" stop-opacity="0"/>
<stop offset="1" stop-color="#B63173"/>
</radialGradient>
<radialGradient id="paint15_radial_76_838" cx="0" cy="0" r="1" gradientUnits="userSpaceOnUse" gradientTransform="translate(67.369 18.035) rotate(139.574) scale(11.5074)">
<stop stop-color="#FFF46F"/>
<stop offset="1" stop-color="#EFB93C"/>
</radialGradient>
<radialGradient id="paint16_radial_76_838" cx="0" cy="0" r="1" gradientUnits="userSpaceOnUse" gradientTransform="translate(65.723 19.8273) rotate(-178.519) scale(11.9665 11.3936)">
<stop offset="0.558644" stop-color="#AA904B" stop-opacity="0"/>
<stop offset="0.943632" stop-color="#AA904B"/>
</radialGradient>
<radialGradient id="paint17_radial_76_838" cx="0" cy="0" r="1" gradientUnits="userSpaceOnUse" gradientTransform="translate(64.3724 16.7969) rotate(102.339) scale(12.7956)">
<stop offset="0.771901" stop-color="#C47072" stop-opacity="0"/>
<stop offset="1" stop-color="#C47072"/>
</radialGradient>
<radialGradient id="paint18_radial_76_838" cx="0" cy="0" r="1" gradientUnits="userSpaceOnUse" gradientTransform="translate(36.1861 47.7576) rotate(132.387) scale(12.8757)">
<stop stop-color="#FF46AA"/>
<stop offset="1" stop-color="#E3189D"/>
</radialGradient>
<radialGradient id="paint19_radial_76_838" cx="0" cy="0" r="1" gradientUnits="userSpaceOnUse" gradientTransform="translate(33.9751 52.0508) rotate(-173.29) scale(11.7012 15.6599)">
<stop offset="0.522105" stop-color="#B63173" stop-opacity="0"/>
<stop offset="1" stop-color="#B63173"/>
</radialGradient>
<linearGradient id="paint20_linear_76_838" x1="119.139" y1="13.0083" x2="91.1275" y2="80.1436" gradientUnits="userSpaceOnUse">
<stop stop-color="#20B2EE"/>
<stop offset="1" stop-color="#2689DA"/>
</linearGradient>
<radialGradient id="paint21_radial_76_838" cx="0" cy="0" r="1" gradientUnits="userSpaceOnUse" gradientTransform="translate(112.991 34.8171) rotate(128.217) scale(48.504 29.6688)">
<stop offset="0.80204" stop-color="#4274D2" stop-opacity="0"/>
<stop offset="0.950917" stop-color="#4274D2"/>
</radialGradient>
<radialGradient id="paint22_radial_76_838" cx="0" cy="0" r="1" gradientUnits="userSpaceOnUse" gradientTransform="translate(110.565 29.1998) rotate(12.0948) scale(6.99112 23.4697)">
<stop stop-color="#4D8EC0"/>
<stop offset="1" stop-color="#4D8EC0" stop-opacity="0"/>
</radialGradient>
<radialGradient id="paint23_radial_76_838" cx="0" cy="0" r="1" gradientUnits="userSpaceOnUse" gradientTransform="translate(124.432 14.0631) rotate(141.953) scale(8.55649 7.69287)">
<stop stop-color="#5ADEFF"/>
<stop offset="1" stop-color="#5ADEFF" stop-opacity="0"/>
</radialGradient>
<radialGradient id="paint24_radial_76_838" cx="0" cy="0" r="1" gradientUnits="userSpaceOnUse" gradientTransform="translate(70.1334 156.738) rotate(133.21) scale(26.5294 58.0844)">
<stop stop-color="#3365FF"/>
<stop offset="1" stop-color="#356DB9"/>
</radialGradient>
<radialGradient id="paint25_radial_76_838" cx="0" cy="0" r="1" gradientUnits="userSpaceOnUse" gradientTransform="translate(46.3051 175.098) rotate(131.598) scale(16.3761 41.4246)">
<stop stop-color="#3365FF"/>
<stop offset="1" stop-color="#356DB9"/>
</radialGradient>
<radialGradient id="paint26_radial_76_838" cx="0" cy="0" r="1" gradientUnits="userSpaceOnUse" gradientTransform="translate(172.09 74.3171) rotate(168.283) scale(26.9283 10.0463)">
<stop stop-color="#FF3BA9"/>
<stop offset="1" stop-color="#F422A7"/>
</radialGradient>
<radialGradient id="paint27_radial_76_838" cx="0" cy="0" r="1" gradientUnits="userSpaceOnUse" gradientTransform="translate(152.608 95.8015) rotate(-127.355) scale(27.765 49.483)">
<stop offset="0.752144" stop-color="#B8306F" stop-opacity="0"/>
<stop offset="1" stop-color="#B8306F"/>
</radialGradient>
<radialGradient id="paint28_radial_76_838" cx="0" cy="0" r="1" gradientUnits="userSpaceOnUse" gradientTransform="translate(106.417 58.3839) rotate(-131.325) scale(18.4046 13.7576)">
<stop stop-color="#336BAF"/>
<stop offset="1" stop-color="#336BAF" stop-opacity="0"/>
</radialGradient>
<radialGradient id="paint29_radial_76_838" cx="0" cy="0" r="1" gradientUnits="userSpaceOnUse" gradientTransform="translate(108.183 46.5817) rotate(-127.657) scale(11.5944 4.69755)">
<stop stop-color="#49A4D4"/>
<stop offset="1" stop-color="#49A4D4" stop-opacity="0"/>
</radialGradient>
<linearGradient id="paint30_linear_76_838" x1="90.3135" y1="135.592" x2="174.12" y2="113.629" gradientUnits="userSpaceOnUse">
<stop stop-color="#3797E2"/>
<stop offset="1" stop-color="#37AEFF"/>
</linearGradient>
<radialGradient id="paint31_radial_76_838" cx="0" cy="0" r="1" gradientUnits="userSpaceOnUse" gradientTransform="translate(121.313 149.295) rotate(-129.838) scale(49.8749 125.022)">
<stop offset="0.622552" stop-color="#526579" stop-opacity="0"/>
<stop offset="0.962126" stop-color="#526579"/>
</radialGradient>
<radialGradient id="paint32_radial_76_838" cx="0" cy="0" r="1" gradientUnits="userSpaceOnUse" gradientTransform="translate(149.325 122.378) rotate(94.3987) scale(17.1199 34.4199)">
<stop offset="0.396078" stop-color="#6972FF"/>
<stop offset="1" stop-color="#6972FF" stop-opacity="0"/>
</radialGradient>
<radialGradient id="paint33_radial_76_838" cx="0" cy="0" r="1" gradientUnits="userSpaceOnUse" gradientTransform="translate(174.71 107.99) rotate(-68.8186) scale(4.69391 3.70171)">
<stop stop-color="#55BFFF"/>
<stop offset="1" stop-color="#55BFFF" stop-opacity="0"/>
</radialGradient>
<radialGradient id="paint34_radial_76_838" cx="0" cy="0" r="1" gradientUnits="userSpaceOnUse" gradientTransform="translate(67.7739 40.2272) rotate(99.4229) scale(45.699 17.1207)">
<stop stop-color="#FF3AAA"/>
<stop offset="1" stop-color="#FD2F89"/>
</radialGradient>
<radialGradient id="paint35_radial_76_838" cx="0" cy="0" r="1" gradientUnits="userSpaceOnUse" gradientTransform="translate(43.9142 87.3512) rotate(31.1757) scale(30.0528 94.3143)">
<stop offset="0.803698" stop-color="#DB2C6E" stop-opacity="0"/>
<stop offset="1" stop-color="#DB2C6E"/>
</radialGradient>
<radialGradient id="paint36_radial_76_838" cx="0" cy="0" r="1" gradientUnits="userSpaceOnUse" gradientTransform="translate(111.524 71.0783) rotate(98.0559) scale(22.1086 12.3044)">
<stop stop-color="#4AB5F8"/>
<stop offset="1" stop-color="#4AB5F8" stop-opacity="0"/>
</radialGradient>
</defs>
</svg>
